<svg xmlns="http://www.w3.org/2000/svg" width="19" height="18" viewBox="0 0 19 18"><defs><style>.a,.d{fill:#fff;}.a{opacity:0;}.b{fill:#f7f9fd;stroke:#a2a7ca;}.c{fill:#33b986;}.d{stroke:#fdfdfd;stroke-width:0.4px;}.e{stroke:none;}.f{fill:none;}</style></defs><g transform="translate(-282 -89)"><rect class="a" width="19" height="18" transform="translate(282 89)"/><g transform="translate(282 89)"><g class="b"><rect class="e" width="18" height="18" rx="9"/><rect class="f" x="0.5" y="0.5" width="17" height="17" rx="8.5"/></g><rect class="c" width="18" height="18" rx="9"/><g transform="translate(5.075 5.024)"><path class="d" d="M18.421-70.124a.826.826,0,0,0,.713-.414l4.024-6.332a1.226,1.226,0,0,0,.211-.564.682.682,0,0,0-.722-.643.742.742,0,0,0-.608.4l-3.654,5.856-1.735-2.237A.744.744,0,0,0,16-74.422a.685.685,0,0,0-.678.7.95.95,0,0,0,.2.546l2.149,2.633A.9.9,0,0,0,18.421-70.124Z" transform="translate(-15.321 78.076)"/></g></g></g></svg>