<svg xmlns="http://www.w3.org/2000/svg" width="20" height="21" viewBox="0 0 20 21"><defs><style>.a{fill:#fff;opacity:0;}.b{fill:#6f91a8;fill-rule:evenodd;}</style></defs><g transform="translate(-1088.589 -595.499)"><rect class="a" width="20" height="21" transform="translate(1088.589 595.499)"/><path class="b" d="M560.483,1900.242a.707.707,0,0,1,.707.707v3.195l3.27,2.616a.707.707,0,1,1-.884,1.1l-3.535-2.828a.707.707,0,0,1-.265-.552v-3.535A.707.707,0,0,1,560.483,1900.242ZM552,1904.483a8.483,8.483,0,1,1,8.483,8.483A8.484,8.484,0,0,1,552,1904.483Zm8.483-7.069a7.07,7.07,0,1,0,7.07,7.069A7.069,7.069,0,0,0,560.483,1897.414Z" transform="translate(538 -1298.688)"/></g></svg>