<svg xmlns="http://www.w3.org/2000/svg" width="59" height="59" viewBox="0 0 59 59"><defs><style>.a,.d{fill:#fff;}.a{opacity:0;}.b{fill:#6f91a8;opacity:0.1;}.c{fill:#f5c90e;}.c,.d{stroke:#707070;}.c,.d,.e{stroke-width:1.5px;}.e{fill:none;stroke:#2b3134;stroke-miterlimit:10;}</style></defs><g transform="translate(-663 -237)"><rect class="a" width="59" height="59" transform="translate(663 237)"/><g transform="translate(663 237)"><circle class="b" cx="29.5" cy="29.5" r="29.5"/><g transform="translate(14.047 10.536)"><rect class="c" width="10.536" height="29.5" transform="translate(10.536 5.619)"/><rect class="d" width="9.833" height="22.476" transform="translate(21.071 12.643)"/><rect class="d" width="10.536" height="18.262" transform="translate(0 16.857)"/><rect class="d" width="4.917" height="2.107" transform="translate(2.81 14.75)"/><rect class="d" width="5.619" height="3.512" transform="translate(23.179 9.131)"/><rect class="d" width="4.917" height="2.81" transform="translate(13.345 2.81)"/><rect class="e" width="10.536" height="29.5" transform="translate(10.536 5.619)"/><line class="e" x1="10.536" transform="translate(10.536 35.119)"/><rect class="e" width="9.833" height="22.476" transform="translate(21.071 12.643)"/><rect class="e" width="10.536" height="18.262" transform="translate(0 16.857)"/><line class="e" x2="2.81" transform="translate(2.107 28.096)"/><line class="e" x2="2.81" transform="translate(5.619 28.096)"/><line class="e" x2="2.81" transform="translate(2.107 25.988)"/><line class="e" x2="2.81" transform="translate(5.619 25.988)"/><line class="e" x2="2.81" transform="translate(2.107 24.584)"/><line class="e" x2="2.81" transform="translate(5.619 24.584)"/><line class="e" x2="6.321" transform="translate(2.107 21.072)"/><line class="e" x2="2.81" transform="translate(2.107 18.965)"/><line class="e" x2="2.81" transform="translate(5.619 18.965)"/><line class="e" x2="2.81" transform="translate(22.476 28.096)"/><line class="e" x2="2.107" transform="translate(26.69 28.096)"/><line class="e" x2="2.81" transform="translate(22.476 25.988)"/><line class="e" x2="2.107" transform="translate(26.69 25.988)"/><line class="e" x2="6.321" transform="translate(22.476 24.584)"/><line class="e" x2="2.81" transform="translate(22.476 21.072)"/><line class="e" x2="2.107" transform="translate(26.69 21.072)"/><line class="e" x2="2.81" transform="translate(22.476 18.965)"/><line class="e" x2="2.107" transform="translate(26.69 18.965)"/><line class="e" x2="2.81" transform="translate(22.476 16.857)"/><line class="e" x2="2.107" transform="translate(26.69 16.857)"/><line class="e" x2="2.81" transform="translate(22.476 14.75)"/><line class="e" x2="2.107" transform="translate(26.69 14.75)"/><line class="e" x2="6.321" transform="translate(12.643 28.096)"/><line class="e" x2="2.107" transform="translate(12.643 25.988)"/><line class="e" x2="2.81" transform="translate(16.155 25.988)"/><line class="e" x2="2.107" transform="translate(12.643 24.584)"/><line class="e" x2="2.81" transform="translate(16.155 24.584)"/><line class="e" x2="2.107" transform="translate(12.643 21.072)"/><line class="e" x2="2.81" transform="translate(16.155 21.072)"/><line class="e" x2="2.107" transform="translate(12.643 18.965)"/><line class="e" x2="2.81" transform="translate(16.155 18.965)"/><line class="e" x2="6.321" transform="translate(12.643 16.857)"/><line class="e" x2="2.107" transform="translate(12.643 14.75)"/><line class="e" x2="2.81" transform="translate(16.155 14.75)"/><line class="e" x2="2.107" transform="translate(12.643 12.643)"/><line class="e" x2="2.81" transform="translate(16.155 12.643)"/><line class="e" x2="2.107" transform="translate(12.643 9.131)"/><line class="e" x2="2.81" transform="translate(16.155 9.131)"/><line class="e" x2="2.107" transform="translate(12.643 7.727)"/><line class="e" x2="2.81" transform="translate(16.155 7.727)"/><rect class="e" width="4.917" height="2.107" transform="translate(2.81 14.75)"/><rect class="e" width="5.619" height="3.512" transform="translate(23.179 9.131)"/><rect class="e" width="4.917" height="2.81" transform="translate(13.345 2.81)"/><line class="e" y1="2.81" transform="translate(15.452 0)"/><rect class="d" width="20.369" height="2.81" transform="translate(5.619 32.31)"/><rect class="e" width="20.369" height="2.81" transform="translate(5.619 32.31)"/><line class="e" y2="2.81" transform="translate(10.536 32.31)"/><line class="e" y2="2.81" transform="translate(15.452 32.31)"/><line class="e" y2="2.81" transform="translate(21.071 32.31)"/></g></g></g></svg>