<svg xmlns="http://www.w3.org/2000/svg" xmlns:xlink="http://www.w3.org/1999/xlink" width="622" height="553" viewBox="0 0 622 553"><defs><style>.a,.y{fill:none;}.b,.h{fill:#fff;}.b{opacity:0;}.c{fill:#2b3a60;}.d{fill:#003d63;}.e{fill:#316281;}.f{fill:#cad8ed;}.g{fill:#f1f3f7;}.i{opacity:0.2;}.j{fill:#585788;}.k{fill:#e58fa7;}.l{fill:#23335c;}.m{fill:#d4e0f0;}.n{fill:#2b395c;}.o{fill:#304067;}.p{opacity:0.6;}.q{fill:#c85663;}.r{fill:#415077;}.s{fill:#1a5e89;}.t{clip-path:url(#a);}.u{fill:#2866b3;}.v{fill:#f5c90e;}.w{fill:#152245;}.x{fill:#95dbc0;}.y{stroke:#b1c7e4;}</style><clipPath id="a"><path class="a" d="M878.658,1030.12c-11.714,2.941-23.556,4.945-34.084,4.945-10.974,0-20.047-2.176-26.97-6.463-15.473-9.571-24.175-25.1-25.177-44.855-.083-1.678-.108-3.311-.089-4.894A37.606,37.606,0,0,0,775.5,947.1L752.1,931.51a116.258,116.258,0,0,0,10.285,161.514H878.658C890.9,1083.919,895.93,1044.967,878.658,1030.12Z" transform="translate(-724.29 -931.51)"/></clipPath></defs><g transform="translate(-223 -167)"><rect class="b" width="622" height="553" transform="translate(223 167)"/><g transform="translate(0 43.544)"><g transform="translate(231 134.848)"><path class="c" d="M1261.612,742.146H1020.891a14.63,14.63,0,0,1-14.611-14.611V582.508a14.63,14.63,0,0,1,14.611-14.618h240.721a14.637,14.637,0,0,1,14.618,14.618v145A14.637,14.637,0,0,1,1261.612,742.146ZM1020.891,568.987a13.533,13.533,0,0,0-13.514,13.52v145a13.533,13.533,0,0,0,13.52,13.514h240.721a13.526,13.526,0,0,0,13.52-13.514v-145a13.533,13.533,0,0,0-13.52-13.52Z" transform="translate(-826.358 -428.248)"/><rect class="d" width="268.858" height="173.126" rx="18.56" transform="translate(172.68 132.904)"/><rect class="e" width="41.69" height="42.219" rx="7.02" transform="translate(209.616 226.754)"/><path class="f" d="M1083.656,725.879a8.569,8.569,0,1,1-10.757,8.295,8.874,8.874,0,0,1,.128-1.474l7.529,3.465a2.189,2.189,0,0,0,3.1-1.991v-8.295m-2.188-2.469v10.757l-9.775-4.466a10.757,10.757,0,1,0,9.775-6.266Z" transform="translate(-849.679 -484.54)"/><path class="f" d="M1072.444,719.7a10.738,10.738,0,0,0-3.924,4.76l9.909,4.186-.089-10.764a10.777,10.777,0,0,0-5.9,1.818Z" transform="translate(-848.886 -482.538)"/><rect class="e" width="41.69" height="42.219" rx="7.02" transform="translate(281.709 162.924)"/><path class="f" d="M1191.07,640.376v7.835a1.276,1.276,0,1,0,2.552,0v-7.835a1.276,1.276,0,1,0-2.552,0Z" transform="translate(-893.244 -454.023)"/><path class="f" d="M1180.54,621.576v19.83a1.276,1.276,0,0,0,2.552,0v-19.83a1.276,1.276,0,0,0-2.552,0Z" transform="translate(-889.433 -447.218)"/><path class="f" d="M1212.12,621.576v19.83a1.276,1.276,0,0,0,2.552,0v-19.83a1.276,1.276,0,0,0-2.552,0Z" transform="translate(-900.864 -447.218)"/><path class="f" d="M1201.59,634.586v11.529a1.276,1.276,0,1,0,2.552,0V634.586a1.276,1.276,0,1,0-2.552,0Z" transform="translate(-897.052 -451.927)"/><rect class="e" width="41.69" height="42.219" rx="7.02" transform="translate(353.801 162.924)"/><path class="f" d="M1302.891,628.46h-7.835a1.276,1.276,0,0,0,0,2.552h7.835a1.276,1.276,0,0,0,0-2.552Z" transform="translate(-930.421 -450.172)"/><path class="f" d="M1314.886,617.93h-19.83a1.276,1.276,0,0,0,0,2.552h19.83a1.276,1.276,0,1,0,0-2.552Z" transform="translate(-930.421 -446.36)"/><path class="f" d="M1314.886,641.552h-19.83a1.276,1.276,0,0,1,0-2.552h19.83a1.276,1.276,0,0,1,0,2.552Z" transform="translate(-930.421 -453.987)"/><rect class="e" width="41.69" height="42.219" rx="7.02" transform="translate(353.801 226.205)"/><path class="f" d="M1302.891,748.272h-7.835a1.276,1.276,0,0,1,0-2.552h7.835a1.276,1.276,0,0,1,0,2.552Z" transform="translate(-930.421 -492.615)"/><rect class="e" width="41.69" height="42.219" rx="7.02" transform="translate(281.709 226.205)"/><path class="f" d="M1178.042,741.453a.912.912,0,0,1-.721-1.474l5.915-7.656a2.967,2.967,0,0,1,5.1.746l1.506,3.886a1.148,1.148,0,0,0,1.946.325l9.022-10.783a.912.912,0,1,1,1.4,1.168l-9.022,10.783a2.967,2.967,0,0,1-5.047-.836l-1.5-3.886a1.136,1.136,0,0,0-.906-.721,1.123,1.123,0,0,0-1.072.434l-5.915,7.656A.906.906,0,0,1,1178.042,741.453Z" transform="translate(-888.198 -485.522)"/><circle class="f" cx="1.984" cy="1.984" r="1.984" transform="translate(312.016 238.698)"/><path class="g" d="M1378.408,1090.655h-54.585q-.753-6.125-1.448-12.078c-.147-1.276-.3-2.552-.447-3.828-1.767-15.313-3.305-29.854-4.913-43.451q-.408-3.484-.829-6.9c-2.552-20.686-5.411-39.131-9.743-55.07a4.428,4.428,0,0,1,1.276-4.4l.166-.147a4.429,4.429,0,0,1-3.682-3.031c-3.72-11.619-8.416-21.732-14.624-30.211,18.848,19.409,37.587,33.746,54.036,60.116a4.377,4.377,0,0,1,.351,3.943l-1.129,2.884.772-.23a4.466,4.466,0,0,1,5.1,2.125,219.983,219.983,0,0,1,13.66,30.479h0q2.795,7.586,5.4,16.187.536,1.761,1.053,3.567c.166.542.319,1.091.478,1.64h0c.325,1.129.638,2.265.97,3.426h0q2.029,7.35,3.943,15.466h0q.97,4.1,1.914,8.4a.339.339,0,0,1,0,.045c.185.906.383,1.812.587,2.737h0c.44,2.093.874,4.243,1.276,6.419a.1.1,0,0,1,0,.044C1378.166,1089.43,1378.281,1090.068,1378.408,1090.655Z" transform="translate(-928.901 -559.874)"/><path class="h" d="M1372.919,1115.4c.51,2.954,1.021,5.991,1.506,9.118H1372.3c-.97-6.183-2-12.04-3.037-17.559-.51-2.718-1.034-5.36-1.55-7.912-2.08-10.209-4.224-19.1-6.234-26.7-.44-1.672-.887-3.286-1.314-4.83-.153-.542-.3-1.085-.453-1.614-7.389-26.109-13.986-39.15-14.037-39.278a1.05,1.05,0,0,1,1.87-.957c.07.134,6.757,13.354,14.2,39.667.357,1.244.715,2.552,1.085,3.886q.638,2.4,1.327,5c1.41,5.436,2.858,11.485,4.307,18.133h0q.4,1.844.81,3.771c.408,1.984.823,4.026,1.232,6.119.836,4.16,1.633,8.544,2.425,13.112h0Z" transform="translate(-949.162 -593.737)"/><g class="i" transform="translate(387.286 464.527)"><path class="j" d="M1374.182,1143.334h-35.265q-.753-6.125-1.448-12.078c-.147-1.276-.3-2.552-.447-3.828-1.767-15.313-3.305-29.854-4.913-43.451q-.408-3.484-.83-6.9c1.7.791,3.446,1.493,5.213,2.118,5.666,1.946,11.708,3.018,16.832,6.131l1.672,1.021c.836.511,1.735,1.072,2.648,1.7a23.772,23.772,0,0,1,9.571,12.206,20.639,20.639,0,0,1,.594,2.029,27.408,27.408,0,0,1,.6,3.395c.115.829.179,1.691.217,2.6a5.382,5.382,0,0,0,.038.785c.038.262,0,.5.032.74.077,1.589.185,3.152.313,4.67,0,.638.1,1.276.153,1.882a140.306,140.306,0,0,0,4.97,26.76h0A1.7,1.7,0,0,0,1374.182,1143.334Z" transform="translate(-1331.28 -1077.08)"/></g><path class="g" d="M1445.978,967.885a23.773,23.773,0,0,1-7.905,16.321c-3.873,3.49-9.3,6.674-9.366,11.887,0,2.425,1.155,4.517,2.552,6.546.217.313.434.638.638.932.638.925,1.359,1.838,1.959,2.763.108.179.223.351.325.53.038.051.07.109.109.166s.064.121.1.172a1.918,1.918,0,0,1,.115.2c.172.3.338.638.485.906.089.179.179.351.262.542s.115.255.179.389.07.166.109.249.07.172.1.249.07.179.109.262.064.179.1.262.128.332.185.5.109.332.172.51a.321.321,0,0,1,0,.07h0a20.878,20.878,0,0,1,.555,2.061c.07.345.14.7.2,1.046l.077.51c0,.166.045.319.057.485a1.349,1.349,0,0,1,0,.236v.23a2.035,2.035,0,0,0,.045.478.157.157,0,0,1,0,.077c.051.638.07,1.276.07,1.914a17.508,17.508,0,0,1-.07,1.914v.179a8.026,8.026,0,0,1-.089.861c-.032.294-.051.415-.083.638a3.1,3.1,0,0,1-.057.351l-.058.37a1.737,1.737,0,0,1-.07.364c-.026.115-.051.249-.07.37s-.058.242-.083.364c-.051.242-.115.485-.172.727s-.134.472-.2.715l-.172.568c-.083.262-.166.517-.255.772s-.179.491-.274.74-.191.479-.293.721-.153.351-.236.53-.159.351-.242.523l-.255.51-.274.517q-.275.5-.574,1c-.2.326-.415.638-.638.964-.121.179-.255.357-.383.536l-.4.517-.211.274c-.127.159-.262.319-.4.472l-.638.759a21.1,21.1,0,0,1-2.45,2.2c-.275.217-.549.421-.842.638s-.51.357-.772.53h-.045c-.638.446-1.353.874-2.016,1.314-.351.217-.689.44-1.015.638-.153.1-.313.2-.466.319s-.351.236-.523.364l-.479.345-.479.37c-.172.141-.351.281-.517.428s-.262.217-.389.332l-.434.4-.4.408h0l-.07.076a1.6,1.6,0,0,0-.166.192,1.182,1.182,0,0,0-.14.166c-.134.147-.255.293-.383.453s-.185.249-.268.37a.9.9,0,0,0-.108.16c-.128.172-.236.357-.351.536s-.217.37-.319.561-.2.376-.287.568c0,.07-.064.127-.089.2a.38.38,0,0,0-.045.1l-.089.2a.429.429,0,0,0,0,.083.958.958,0,0,1-.051.121,4.217,4.217,0,0,0-.185.472v.051c-.064.192-.121.376-.185.562s-.115.4-.179.638a4.86,4.86,0,0,0-.121.53c-.045.185-.089.376-.121.568s-.057.261-.076.4-.051.281-.064.408l-.045.338a4.455,4.455,0,0,1-.07.587c-.026.191-.051.472-.057.721s-.038.542-.045.817,0,.459,0,.683v.121a32.82,32.82,0,0,0,.268,4.052c.1.766.2,1.525.325,2.291.064.408.134.817.2,1.231s.121.734.179,1.1v.134c.057.338.109.683.16,1.021s.121.785.179,1.167.083.594.121.9q.115.868.191,1.742a.6.6,0,0,1,0,.115c.039.415.07.823.083,1.276h0v2.278h0c0,.351-.044.7-.07,1.046a1.2,1.2,0,0,1-.038.37,3.167,3.167,0,0,0-.057.472.947.947,0,0,1-.045.306,5.149,5.149,0,0,0-.1.561,4.978,4.978,0,0,1-.1.523v.153c0,.051-.064.262-.089.389h0v.128c-.076.306-.147.593-.236.893l-.038.134c-.051.185-.115.364-.172.542l-.179.542h0c-.134.357-.268.708-.408,1.059s-.3.715-.453,1.066c-.077.153-.147.319-.23.478-.2.434-.427.849-.638,1.276a6.225,6.225,0,0,1-.376.638,1.607,1.607,0,0,1-.166.281h0c-.089.147-.172.287-.262.421s-.166.274-.262.415-.172.274-.268.408a1.785,1.785,0,0,1-.134.2c-.083.121-.166.242-.255.357-.172.249-.338.485-.517.721l-.064.077-.332.434c-.223.3-.453.581-.7.868l-.357.421c-.172.21-.351.408-.542.638h0c-.089.1-.179.2-.275.3s-.185.21-.281.306-.191.2-.287.306l-.294.287a.363.363,0,0,1-.083.089l-.108.115c-.313.313-.638.638-.957.919h0l-.032.038c-.357.325-.721.638-1.084.976-.21.185-.421.364-.638.53l-.134.115c-.153.141-.306.262-.459.383-.383.313-.779.638-1.168.932-.766.593-1.557,1.174-2.354,1.735-.408.293-.823.574-1.238.868h0l-1.238.83c-.517.344-.97.638-1.385.97h-6.75l-.255-.223h0a29.762,29.762,0,0,1-6.38-8.933h0a52.134,52.134,0,0,1-3.324-8.416c-.064-.242-.14-.479-.2-.715a35.024,35.024,0,0,1-1.276-8.09,33.017,33.017,0,0,1,.306-5.781h0a27.988,27.988,0,0,1,2.552-8.479c0-.038.045-.064.064-.109h0c.4-.791.83-1.563,1.276-2.329,3.4-5.634,8.295-10.509,10.279-16.717h0c.115-.351.217-.715.313-1.078,1.621-6.38-.255-13.1-2.68-19.218s-5.43-12.123-6.164-18.669,1.41-13.935,7.108-17.227c5.1-2.948,11.81-2.048,16.64-5.411,4.549-3.19,6.017-9.086,7.656-14.382s4.409-11.134,9.775-12.538c3.765-1,7.823.638,10.8,3.133A20.7,20.7,0,0,1,1445.978,967.885Z" transform="translate(-962.016 -565.765)"/><path class="h" d="M1399.156,1105.59a1.078,1.078,0,0,1-.479-.115,1.053,1.053,0,0,1-.453-1.416c.236-.453,23.371-45.588,17.227-67.971-6.6-23.971,3.465-27.621,3.9-27.768a1.053,1.053,0,0,1,.67,1.991c-2.986,1.085-7.357,7.746-2.552,25.222,2.693,9.768.581,24.45-6.278,43.636a235.426,235.426,0,0,1-11.083,25.853,1.04,1.04,0,0,1-.95.568Z" transform="translate(-968.183 -587.653)"/><path class="g" d="M1331.534,1127.214h-82.467a40.35,40.35,0,0,1-9.016-4.466,30.543,30.543,0,0,1-13.093-24.59c-.032-6.712,2.067-13.948-1.2-19.779-3.937-7.018-13.629-8.448-19.186-14.3-7.184-7.586-4.581-21.311,3.93-27.385s20.685-5.1,29.535.459c7.593,4.792,12.978,12.34,19.779,18.223a55.6,55.6,0,0,0,25.35,12.416,1.681,1.681,0,0,1,.312.057c5.742,1.123,11.8,1.41,17.176,3.771a53.247,53.247,0,0,1,7.019,3.432,28.267,28.267,0,0,1,2.661,1.876,22.631,22.631,0,0,1,6.942,9.532h0a30.338,30.338,0,0,1,1.066,3.273q.325,1.225.555,2.552c.089.51.185,1.008.274,1.506.306,1.646.638,3.254.983,4.817.121.542.23,1.085.357,1.614A141.169,141.169,0,0,0,1331.534,1127.214Z" transform="translate(-897.346 -596.433)"/><path class="h" d="M1317.252,1137.7q3.1,4,6.227,8.384h-2.591c-3.107-4.307-6.214-8.333-9.258-12.078-3.611-4.466-7.146-8.511-10.521-12.18h0c-.983-1.053-1.914-2.061-2.852-3.05-1.4-1.468-2.75-2.852-4.064-4.186-18.682-18.758-33.574-27.844-33.727-27.933a1.053,1.053,0,1,1,1.084-1.8c.153.089,15.275,9.309,34.135,28.252,2.169,2.189,4.466,4.562,6.8,7.121a1.322,1.322,0,0,1,.128.14c2.776,3.012,5.647,6.278,8.575,9.807q1.761,2.106,3.541,4.345h0c.836,1.047,1.659,2.1,2.508,3.19Z" transform="translate(-918.156 -615.298)"/><path class="h" d="M1347.232,1151.908a1.052,1.052,0,0,1-1.033-.868c-2.342-13.584,2.163-29.593,2.361-30.262a1.048,1.048,0,1,1,2.016.574c-.045.159-4.568,16.225-2.3,29.35a1.059,1.059,0,0,1-.861,1.213Z" transform="translate(-949.151 -628.094)"/><path class="h" d="M1311.63,1141.1a1.033,1.033,0,0,1-.491-.121c-6.38-3.407-22.561.058-22.721.1a1.048,1.048,0,1,1-.447-2.048c.7-.153,17.055-3.669,24.15.1a1.053,1.053,0,0,1-.491,1.978Z" transform="translate(-928.02 -634.384)"/><g class="i" transform="translate(416.674 436.74)"><path class="j" d="M1435.976,1049.43a17.449,17.449,0,0,1-.07,1.914v.179a8.071,8.071,0,0,1-.089.861c-.032.293-.051.415-.083.638a3.105,3.105,0,0,1-.057.351l-.057.37a1.74,1.74,0,0,1-.07.364c-.026.115-.051.249-.07.37s-.057.242-.083.364c-.051.243-.115.485-.172.727s-.134.472-.2.715l-.172.568c-.083.261-.166.517-.255.772s-.179.491-.274.74-.191.479-.293.721-.153.351-.236.53-.16.351-.243.523l-.255.511-.275.517q-.274.5-.574,1c-.2.325-.421.638-.638.963-.121.179-.255.357-.383.536l-.4.517-.21.274c-.128.159-.262.319-.4.472l-.638.759a21.1,21.1,0,0,1-2.45,2.2c-.275.217-.549.421-.842.638s-.51.357-.772.53h-.045c-.638.446-1.353.874-2.016,1.314-.351.217-.689.44-1.014.638l-.14.089c-.109.07-.223.153-.325.23s-.351.236-.523.364l-.479.344-.478.37c-.172.14-.351.281-.517.427s-.261.217-.389.332l-.434.4-.4.408h0l-.07.077a1.63,1.63,0,0,0-.166.191,1.212,1.212,0,0,0-.14.166c-.134.147-.255.294-.383.453s-.185.249-.268.37a.87.87,0,0,0-.109.16.633.633,0,0,0-.083.115c-.1.141-.185.274-.268.421s-.217.37-.319.561-.2.376-.287.568c0,.032-.038.07-.057.1a.478.478,0,0,1,0,.1.379.379,0,0,0-.045.1l-.089.2a.461.461,0,0,0,0,.083,1,1,0,0,1-.051.121,4.274,4.274,0,0,0-.185.472v.051h0c-.057.179-.115.364-.179.549s-.115.4-.179.638a4.91,4.91,0,0,0-.121.53c-.045.185-.083.376-.121.568l-.077.4a.388.388,0,0,1-.038.2,1.723,1.723,0,0,1,0,.2l-.045.338a4.476,4.476,0,0,1-.07.587c-.026.191-.051.472-.057.721s-.038.542-.045.817,0,.459,0,.683v.121a32.8,32.8,0,0,0,.268,4.051c.1.766.2,1.525.325,2.291.064.408.134.817.2,1.231s.121.734.179,1.1v.134c.057.338.109.683.159,1.021s.121.785.179,1.167.083.594.121.9q.115.868.191,1.742a.624.624,0,0,1,0,.115c.038.415.07.823.083,1.276h0v2.278h0c0,.351-.038.7-.064,1.046a3.3,3.3,0,0,1-.045.37c-.013.115-.038.313-.057.472a.945.945,0,0,1-.045.306,5.1,5.1,0,0,0-.1.561,5.046,5.046,0,0,1-.1.523q0,.077,0,.153c0,.051-.064.262-.089.389h0v.128c-.077.306-.147.593-.236.893l-.038.134c-.051.185-.115.364-.172.542s-.051.185-.083.275-.057.178-.1.268h0c-.083.23-.172.466-.262.7-.045.121-.1.243-.147.357s-.14.357-.217.536l-.064.153c-.051.128-.115.255-.172.376l-.127.281c0,.064-.064.134-.1.2-.2.434-.428.849-.638,1.276a6.248,6.248,0,0,1-.376.638,1.618,1.618,0,0,1-.166.281h0c-.089.147-.172.287-.262.421s-.166.274-.262.415-.172.274-.268.408a1.8,1.8,0,0,1-.134.2c-.083.121-.166.242-.255.357-.172.249-.338.485-.517.721l-.064.077-.332.434c-.121.147-.23.294-.351.434l-.351.434-.357.421c-.172.21-.351.408-.542.638h0c-.089.1-.179.2-.274.3a1.032,1.032,0,0,1-.109.134l-.172.172c-.1.1-.192.2-.287.306s-.192.2-.287.293l-.083.083-.115.121c-.319.313-.638.638-.957.912h0l-.032.038c-.357.325-.721.638-1.085.976-.211.185-.421.364-.638.53l-.134.115c-.153.141-.306.262-.459.383-.383.313-.778.638-1.167.932-.766.594-1.557,1.174-2.354,1.735h0l-1.212.842h0c-.408.281-.817.562-1.231.836-.517.344-.976.638-1.391.963h-18.988c-2.195-11.4-2.756-18.535.408-25.471.134-.306.281-.638.427-.906.338-.638.7-1.333,1.117-2.01a35.753,35.753,0,0,1,2.974-4.185c.236-.294.478-.574.746-.855s.555-.587.842-.861c3.828-3.745,9.386-6.591,14.235-9.335,1.48-.849,2.9-1.672,4.173-2.514h0c.3-.2.593-.4.874-.6.638-.459,1.321-.944,1.978-1.442h0c9.788-7.439,17.6-17.865,20.143-29.841,1.1-5.3,1.219-10.847,3.19-15.881.217.313.434.638.638.932.638.925,1.359,1.838,1.959,2.763.109.179.223.351.325.53.038.051.07.108.109.166s.064.121.1.172a1.938,1.938,0,0,1,.115.2c.172.3.338.638.485.906.089.179.179.351.262.542s.115.255.179.389.07.166.109.249.07.172.1.249.07.179.109.262.064.179.1.262.128.332.185.5.108.332.172.511a.307.307,0,0,1,0,.07h0c.1.325.2.638.287,1s.185.708.268,1.066.134.676.191,1.014v.051h0a2.4,2.4,0,0,0,.083.485,3.876,3.876,0,0,1,.057.485,1.349,1.349,0,0,1,0,.236v.23a2.034,2.034,0,0,0,.045.478.162.162,0,0,1,0,.077A8.563,8.563,0,0,0,1435.976,1049.43Z" transform="translate(-1377.34 -1033.53)"/></g><path class="g" d="M1501.928,1085.844c-2.552,10.132-8.722,19.575-17.75,24.839-7.019,4.083-15.371,5.557-22.006,10.209-.44.306-.861.638-1.276.957h-77.886c-.931-7.261-1.276-12.761-.53-17.559.038-.255.083-.491.128-.727a24.577,24.577,0,0,1,1.1-3.981,26.044,26.044,0,0,1,3.471-6.342c.057-.089.134-.179.2-.268.759-1.021,1.633-2.061,2.6-3.12,3.075-3.35,7.74-5.832,12.346-8.058.434-.217.861-.421,1.276-.638.919-.44,1.812-.874,2.7-1.276h0c1.946-.951,3.79-1.876,5.379-2.852a62.2,62.2,0,0,0,6.246-4.364h0a56.651,56.651,0,0,0,9.347-9.277h0a45.851,45.851,0,0,0,8.422-16.2c.676-2.412,1.136-4.9,1.646-7.363h0a37.29,37.29,0,0,1,2.718-8.716c4.147-8.518,13.871-13.584,23.352-13.4s18.5,5.1,24.884,12.123,10.362,15.951,12.761,25.088C1503.689,1064.941,1504.492,1075.705,1501.928,1085.844Z" transform="translate(-962.379 -591.061)"/><path class="h" d="M1475.916,1096.252a56.689,56.689,0,0,1-6.693,10.208c-.842,1.047-1.716,2.036-2.591,2.98a110.7,110.7,0,0,1-14.26,12.3c-7.484,5.742-14.777,11.325-20.213,20.577h-2.4q.542-1.008,1.129-1.953c5.615-9.1,13.022-14.777,20.213-20.3,8.294-6.336,16.844-12.895,22.969-24.775,5.6-10.91,3.828-19.6,3.828-19.683a1.046,1.046,0,1,1,2.042-.44C1480.031,1075.547,1481.888,1084.633,1475.916,1096.252Z" transform="translate(-979.64 -611.537)"/><path class="h" d="M1504.735,1129.062a1.042,1.042,0,0,1-.434-.089c-.1-.051-10.719-4.785-17.916-1.359a1.057,1.057,0,1,1-.9-1.914c8.084-3.828,19.218,1.129,19.683,1.34a1.046,1.046,0,0,1-.434,2Z" transform="translate(-999.59 -629.628)"/><path class="h" d="M1426.973,1169.3h-2.106c0-.638-.045-1.276-.1-1.838a.111.111,0,0,0,0-.045,35.729,35.729,0,0,0-1.11-6.623h0c-.236-.9-.5-1.742-.778-2.552a.323.323,0,0,0,0-.045,27.068,27.068,0,0,0-3.962-7.656,1.048,1.048,0,1,1,1.608-1.346,6.865,6.865,0,0,0,.453.587h0a31.121,31.121,0,0,1,4.371,9.156,38.122,38.122,0,0,1,1.544,8.378C1426.929,1167.981,1426.954,1168.638,1426.973,1169.3Z" transform="translate(-975.628 -638.52)"/><circle class="f" cx="3.35" cy="3.35" r="3.35" transform="translate(393.8)"/><circle class="f" cx="3.35" cy="3.35" r="3.35" transform="translate(410.632)"/><circle class="f" cx="3.35" cy="3.35" r="3.35" transform="translate(427.47)"/><circle class="f" cx="3.35" cy="3.35" r="3.35" transform="translate(444.301)"/><circle class="f" cx="3.35" cy="3.35" r="3.35" transform="translate(461.139)"/><circle class="f" cx="3.35" cy="3.35" r="3.35" transform="translate(393.8 15.587)"/><circle class="f" cx="3.35" cy="3.35" r="3.35" transform="translate(410.632 15.587)"/><circle class="f" cx="3.35" cy="3.35" r="3.35" transform="translate(427.47 15.587)"/><circle class="f" cx="3.35" cy="3.35" r="3.35" transform="translate(444.301 15.587)"/><circle class="f" cx="3.35" cy="3.35" r="3.35" transform="translate(461.139 15.587)"/><circle class="f" cx="3.35" cy="3.35" r="3.35" transform="translate(393.8 31.175)"/><circle class="f" cx="3.35" cy="3.35" r="3.35" transform="translate(410.632 31.175)"/><circle class="f" cx="3.35" cy="3.35" r="3.35" transform="translate(427.47 31.175)"/><circle class="f" cx="3.35" cy="3.35" r="3.35" transform="translate(444.301 31.175)"/><circle class="f" cx="3.35" cy="3.35" r="3.35" transform="translate(461.139 31.175)"/><circle class="f" cx="3.35" cy="3.35" r="3.35" transform="translate(393.8 46.762)"/><circle class="f" cx="3.35" cy="3.35" r="3.35" transform="translate(410.632 46.762)"/><circle class="f" cx="3.35" cy="3.35" r="3.35" transform="translate(427.47 46.762)"/><circle class="f" cx="3.35" cy="3.35" r="3.35" transform="translate(444.301 46.762)"/><circle class="f" cx="3.35" cy="3.35" r="3.35" transform="translate(461.139 46.762)"/><path class="f" d="M1134.11,1098.375l14.943,19.052,16.857-16.857-12.882-16.729Z" transform="translate(-872.627 -615)"/><path class="k" d="M1148.169,1111.994l17.635-17.635,4.715-.555a24.615,24.615,0,0,0,11.823-4.728l2.246-1.691a10.47,10.47,0,0,1,12.423-.1h0l-39.973,39.98-3.784-4.824a27.658,27.658,0,0,1-5.1-10.451Z" transform="translate(-877.709 -615.526)"/><path class="l" d="M955.52,1125.371l6.84,10.643,47.445-28.533v-57.2l-47.445,22.829Z" transform="translate(-807.985 -602.853)"/><path class="l" d="M767.88,918.671l48.963-22.631,125.044,98.412-47.445,22.829-37.006,34.371-71.652-46.75Z" transform="translate(-740.068 -547.024)"/><path class="m" d="M878.658,1030.12c-11.714,2.941-23.556,4.945-34.084,4.945-10.974,0-20.047-2.176-26.97-6.463-15.473-9.571-24.175-25.1-25.177-44.855-.083-1.678-.108-3.311-.089-4.894A37.606,37.606,0,0,0,775.5,947.1L752.1,931.51a116.258,116.258,0,0,0,10.285,161.514H878.658C890.9,1083.919,895.93,1044.967,878.658,1030.12Z" transform="translate(-724.29 -559.863)"/><path class="f" d="M1018.683,1132.87l-7.8,24.4h23.85l6.8-21.3Z" transform="translate(-828.023 -632.747)"/><path class="k" d="M1009.367,1157.89h24.941l2.96,2.941a18.434,18.434,0,0,0,10.4,5.015l2.673.4c4.377.638,7.018,4.186,6.585,8.722H1000.39l2.323-6.087a37.145,37.145,0,0,1,6.655-10.987Z" transform="translate(-824.226 -641.803)"/><path class="d" d="M1027.684,1014.8l-20.054,75.334,37.619,12.046,26.058-73.05Z" transform="translate(-826.847 -590.01)"/><path class="k" d="M907.878,790.742a48.709,48.709,0,0,1,33.682,16.589L959.9,828.3c9.571-5.679,20.315-15.664,31.392-26.721l17.865,17.227c-8.135,12.359-18.95,24.769-31.4,37.211a29.866,29.866,0,0,1-37.4,3.956A201.694,201.694,0,0,1,920.626,845.3v64.442H826.4L810.71,830.9h0A39.214,39.214,0,0,1,828.8,805.551l13.469-8.116,11.134-6.731,30.543-2.284Z" transform="translate(-755.57 -508.07)"/><path class="d" d="M852.224,972.82s-12.231,38.761,17.08,56.939,113.444-22.574,113.444-22.574l43.955,60.825,29.49-25.522-44.178-68.711a23.812,23.812,0,0,0-24.309-10.585l-52.958,9.628Z" transform="translate(-769.68 -571.191)"/><path class="n" d="M893.23,983.525l34.607,9.532v-5.621L899.91,979.78Z" transform="translate(-785.439 -577.335)"/><path class="o" d="M903.7,973.149l29.739-11.689,28.055,9.928-29.867,9.418Z" transform="translate(-789.229 -570.704)"/><path class="f" d="M915.38,699s18.688,26.236,6.323,43.623c-8.575,12.059-32.655,9.4-46.883-8.62l4.843-28.361Z" transform="translate(-778.775 -475.704)"/><g class="p" transform="translate(121.094 280.394)"><path class="q" d="M933.808,789.664a28.387,28.387,0,0,1-6.923,17.769,5.4,5.4,0,0,1-8.027.134l-4.779-5.1h0a15.314,15.314,0,0,0,7.261-12.4V788.49Z" transform="translate(-914.08 -788.49)"/></g><g class="p" transform="translate(86.729 282.634)"><path class="q" d="M894.6,803.714l-2.852,10.547a5.353,5.353,0,0,1-5.1,3.994H886.6a27.627,27.627,0,0,1-26.377-19.524L871.328,792A15.313,15.313,0,0,0,894.6,803.689Z" transform="translate(-860.22 -792)"/></g><path class="f" d="M908.148,750.33v25.911a15.313,15.313,0,0,1-30.588-.638V750.33Z" transform="translate(-779.767 -494.284)"/><path class="k" d="M858.651,877.414c-.128-7.076-1-16.863-3.771-24.884" transform="translate(-771.558 -531.276)"/><path class="k" d="M836.1,844.466c-2.444-7.082-6.38-12.761-12.525-14.037-8.065-1.665-13.635,10.081-15.658,15.651,0,0-6.546,25.949-4.549,50.731s10.7,39.622,27,40.618,34.761-8.811,34.761-8.811V902.139s-14.471,3.19-24.616,2.163l-.638-34.946" transform="translate(-752.774 -523.218)"/><g class="p" transform="translate(151.778 282.121)"><path class="q" d="M975.46,846.785a.549.549,0,0,1-.549-.549V816.191a29.305,29.305,0,0,0-12.506-24,.536.536,0,0,1-.134-.759.542.542,0,0,1,.759-.14,30.41,30.41,0,0,1,12.978,24.884v30.045a.549.549,0,0,1-.549.561Z" transform="translate(-962.17 -791.197)"/></g><path class="f" d="M1093.77,794.876l7.912-8.212,14.732-16.034c2.01-1.716,4.319.281,3.382,2.259l-4.932,7.312c2.182-1.085,4.7.638,4.134,3.522,2.042-1.123,4.218,0,3.72,2.9,1.665-1.34,4.562.638,3.024,3.79l-14.114,21.693Z" transform="translate(-858.026 -501.396)"/><path class="c" d="M1134.849,802.952a.516.516,0,0,1-.326-.115,2.482,2.482,0,0,1-.562-3.356l2.7-4.039a.545.545,0,1,1,.906.606l-2.7,4.045a1.391,1.391,0,0,0,.319,1.876.555.555,0,0,1,.1.766.562.562,0,0,1-.44.217Z" transform="translate(-872.422 -510.525)"/><path class="c" d="M1129.008,798.341a.543.543,0,0,1-.345-.121,2.7,2.7,0,0,1-.479-3.65l2.641-3.688a.549.549,0,0,1,.766-.121.542.542,0,0,1,.128.759l-2.648,3.688a1.6,1.6,0,0,0,.287,2.163.555.555,0,0,1,.076.772A.542.542,0,0,1,1129.008,798.341Z" transform="translate(-870.301 -508.88)"/><path class="c" d="M1123,792.071a.568.568,0,0,1-.37-.147,2.724,2.724,0,0,1-.319-3.65l2.246-2.961a.542.542,0,1,1,.868.638l-2.24,2.967a1.621,1.621,0,0,0,.192,2.182.549.549,0,0,1,0,.778A.543.543,0,0,1,1123,792.071Z" transform="translate(-868.157 -506.847)"/><path class="c" d="M1107.225,803.512a.543.543,0,0,1-.376-.147.549.549,0,0,1,0-.772l1.423-1.531a5.743,5.743,0,0,1,5.379-1.691,2.137,2.137,0,0,0,1.652-.326,1.359,1.359,0,0,0,.587-1.085,1.34,1.34,0,0,0-.53-1.11l-1.582-1.231a5.436,5.436,0,0,0-3.828-1.123l-2.667.23a.549.549,0,1,1-.1-1.091l2.667-.23a6.528,6.528,0,0,1,4.581,1.353l1.589,1.231a2.457,2.457,0,0,1-.115,3.956,3.229,3.229,0,0,1-2.508.5,4.613,4.613,0,0,0-4.339,1.359l-1.423,1.538A.549.549,0,0,1,1107.225,803.512Z" transform="translate(-862.688 -509.866)"/><g class="p" transform="translate(198.73 319.654)"><path class="q" d="M1036.308,854.2a.549.549,0,0,1-.281-1.021l5.1-3.075a.542.542,0,0,1,.753.185.555.555,0,0,1-.185.753l-5.1,3.076A.536.536,0,0,1,1036.308,854.2Z" transform="translate(-1035.758 -850.022)"/></g><g class="p" transform="translate(81.686 378.067)"><path class="q" d="M862.183,945.354a23.139,23.139,0,0,1-3.918-.23c-.153,0-4.071-.638-5.813-2.648a.545.545,0,1,1,.817-.721c1.487,1.684,5.143,2.284,5.181,2.291s6.725,1.148,24.431-2.157a.549.549,0,0,1,.638.434.542.542,0,0,1-.44.638C872.532,944.933,865.909,945.354,862.183,945.354Z" transform="translate(-852.316 -941.571)"/></g><path class="f" d="M900.376,939.964l14.988-4.409a19.492,19.492,0,0,1,13.444.919l4.683,2.1a3.073,3.073,0,0,1,0,5.436c2.252,1.55,1.812,4.926,0,5.468,2.431,1.589,2.067,5.009,0,5.608,3.146,1.716,2.342,6.291,0,5.628l-2.731-.772a26.446,26.446,0,0,0-17.316.938c-4.466,1.812-9.654,3.981-13.074,5.532Z" transform="translate(-788.023 -561.043)"/><path class="c" d="M946.657,965.346H946.5l-9.341-2.68a.549.549,0,1,1,.306-1.053l9.341,2.68a.549.549,0,0,1-.153,1.072Z" transform="translate(-801.189 -570.749)"/><path class="c" d="M947.264,956.644a.463.463,0,0,1-.159,0l-8.295-2.552a.555.555,0,0,1-.364-.689.542.542,0,0,1,.683-.357l8.295,2.552a.555.555,0,0,1,.364.689.542.542,0,0,1-.523.357Z" transform="translate(-801.797 -567.649)"/><path class="c" d="M947.265,947.739a.512.512,0,0,1-.191-.038l-8.295-3.114a.549.549,0,0,1-.319-.708.542.542,0,0,1,.7-.319l8.295,3.12a.542.542,0,0,1,.319.7A.549.549,0,0,1,947.265,947.739Z" transform="translate(-801.797 -564.212)"/><path class="r" d="M1020.424,870.034,950.163,892.7a3.892,3.892,0,0,0-2.693,3.7v56.862l78.033-25.184V873.728a3.886,3.886,0,0,0-5.079-3.694Z" transform="translate(-805.072 -537.543)"/><path class="s" d="M888.124,719.195s.855-12.04-2.067-16.9c0,0,20.309,2.188,26.16-6.2s1.582-15.077-1.333-17.144-8.148-4.466-16.417,1.219-25.9-1.582-32.1,13.979c0,0-12.448,7.3-8.805,21.055s13.061,18.254,15.492,26.689c0,0,8.633-5.538,7.057-18.063,0,0-6.017-9.2-1.7-13.622C879.121,705.343,885.935,708.769,888.124,719.195Z" transform="translate(-770.839 -467.608)"/><circle class="s" cx="14.783" cy="14.783" r="14.783" transform="translate(66.478 204.556)"/><g class="p" transform="translate(85.507 349.375)"><path class="q" d="M859.106,928.535a.542.542,0,0,1-.542-.517,270.657,270.657,0,0,1,.5-30.9.55.55,0,1,1,1.1.07,277.268,277.268,0,0,0-.5,30.773.549.549,0,0,1-.517.574Z" transform="translate(-858.305 -896.603)"/></g><g class="p" transform="translate(54.593 306.499)"><path class="q" d="M810.4,846.284h-.14a.555.555,0,0,1-.389-.67c1.416-5.372,4.288-12.346,9.941-15.1a9.876,9.876,0,0,1,6.38-.944c5.66,1.168,10.011,6.023,12.908,14.42a.549.549,0,1,1-1.034.357c-2.763-8.007-6.84-12.62-12.123-13.711-.44-.108-10.362-2.4-15.013,15.255A.549.549,0,0,1,810.4,846.284Z" transform="translate(-809.854 -829.404)"/></g><path class="c" d="M901.48,773.71a35.8,35.8,0,0,0,15.313,11.019v-7.714a37.51,37.51,0,0,1-15.313-3.3Z" transform="translate(-788.425 -502.746)"/><path class="l" d="M1072.8,1082.644l7.484-19.767-22.051-30.518Z" transform="translate(-845.162 -596.366)"/><g class="t" transform="translate(0 371.647)"><g class="i" transform="translate(6.619 13.336)"><path class="u" d="M755.733,1064.644a3.707,3.707,0,0,1-2.89-1.385,2.023,2.023,0,0,1-3.273-2.329,3.675,3.675,0,0,1,3.1-1.914,3.733,3.733,0,0,1,3.018,1.276,2.023,2.023,0,0,1,3.624,1.71,3.688,3.688,0,0,1-3.018,2.6,3.337,3.337,0,0,1-.561.038Z" transform="translate(-739.969 -990.996)"/><path class="u" d="M804.251,1050.847a1.6,1.6,0,0,1-.249,0,2.022,2.022,0,0,1-1.761-2.259,2.858,2.858,0,0,1,3.19-2.488,2.06,2.06,0,0,1,1.276-.593,2.029,2.029,0,0,1,2.182,1.857,2.858,2.858,0,0,1-3.394,3.043A2.01,2.01,0,0,1,804.251,1050.847Zm.16-.938Zm.472-2.233Zm1.85-1.085Z" transform="translate(-759.118 -986.105)"/><path class="u" d="M838.576,1066.516a2.022,2.022,0,0,1-1.493-.638,5.238,5.238,0,0,1,3.528-8.78h.236a1.187,1.187,0,0,0,.944-1.793,2.026,2.026,0,0,1,3.465-2.1,5.232,5.232,0,0,1-4.154,7.937h-.236a1.181,1.181,0,0,0-.8,1.984,2.023,2.023,0,0,1-1.487,3.4Z" transform="translate(-771.233 -988.541)"/><path class="u" d="M741.221,1105.556a3.741,3.741,0,0,1-.753-.077,3.7,3.7,0,0,1-2.807-2.456,2.029,2.029,0,0,1-2.31-3.3,3.758,3.758,0,0,1,6,1.506,2.029,2.029,0,0,1,2.852,2.833A3.719,3.719,0,0,1,741.221,1105.556Z" transform="translate(-734.664 -1005.391)"/><path class="u" d="M811.349,1169.242a6.17,6.17,0,0,1-6.01-4.76l-.07-.3a2.106,2.106,0,0,0-3.407-1.117,2.029,2.029,0,1,1-2.642-3.075,6.157,6.157,0,0,1,10,3.273l.064.3a2.1,2.1,0,0,0,3.7.81,2.029,2.029,0,0,1,3.19,2.482A6.093,6.093,0,0,1,811.349,1169.242Z" transform="translate(-757.75 -1027.011)"/><path class="u" d="M865.746,1165.39h-.294a5.812,5.812,0,0,1-3.107-10.03l.2-.191a1.755,1.755,0,0,0-.593-2.948,2.032,2.032,0,1,1,1.365-3.828,5.813,5.813,0,0,1,1.978,9.743l-.211.191a1.755,1.755,0,0,0-.485,1.818,1.736,1.736,0,0,0,1.429,1.219,2.029,2.029,0,0,1-.287,4.032Z" transform="translate(-780.2 -1023.305)"/><path class="u" d="M909.849,1132.091a1.967,1.967,0,0,1-.568-.083,2.023,2.023,0,0,1-1.378-2.514,3.063,3.063,0,0,1,2.163-2.106,3.114,3.114,0,0,1,1.959.121,2.029,2.029,0,0,1,3.407,1.646,3.063,3.063,0,0,1-1.978,2.622,3.025,3.025,0,0,1-2.393-.089A2,2,0,0,1,909.849,1132.091ZM913.04,1128.2Z" transform="translate(-797.339 -1015.592)"/><path class="u" d="M959.341,1147.32a1.989,1.989,0,0,1-1.2-.4,5.1,5.1,0,0,1,1.742-9.067l.223-.057a1.058,1.058,0,0,0,.753-.727,1.04,1.04,0,0,0-.23-1.015,2.029,2.029,0,0,1,3.011-2.718,5.1,5.1,0,0,1-2.514,8.377l-.217.058a1.059,1.059,0,0,0-.37,1.882,2.029,2.029,0,0,1-1.2,3.662Z" transform="translate(-814.795 -1017.67)"/><path class="u" d="M801.021,1135.9a2.014,2.014,0,0,1-1.149-.357,2.15,2.15,0,0,1-.925-1.914,3.194,3.194,0,0,1,.07-.421,2.1,2.1,0,0,1,.147-.536,2.022,2.022,0,0,1,2.654-1.072,2.138,2.138,0,0,1,1.276,1.876,2.024,2.024,0,0,1-.115.785,1.99,1.99,0,0,1-.319.74,2.016,2.016,0,0,1-1.64.9Zm-.785-.542ZM800.236,1135.356ZM802.15,1132.217ZM802.15,1132.217Zm-2.08-.313h-.057Z" transform="translate(-757.93 -1017.211)"/><path class="u" d="M938.85,1175.2a3.72,3.72,0,0,1-3.56-4.779,2.023,2.023,0,0,1-.5-3.975,3.713,3.713,0,0,1,4.543,4.728,2.029,2.029,0,0,1-.211,4.02Z" transform="translate(-806.56 -1029.833)"/><path class="u" d="M760.846,961.668h-.159a2.029,2.029,0,0,1-1.87-2.176,5.1,5.1,0,0,1,7.829-3.975l.2.121a1.078,1.078,0,0,0,1.64-1.053,2.029,2.029,0,0,1,4.02-.51,5.1,5.1,0,0,1-7.8,5.009l-.2-.121a1.072,1.072,0,0,0-1.059-.045,1.047,1.047,0,0,0-.587.881A2.029,2.029,0,0,1,760.846,961.668Z" transform="translate(-743.404 -952.411)"/><path class="u" d="M777.906,1014.57a2,2,0,0,1-.867-.2,5.525,5.525,0,0,1,0-9.985l.236-.115a1.474,1.474,0,0,0,.255-2.507,2.029,2.029,0,0,1,2.437-3.241,5.525,5.525,0,0,1-.957,9.411l-.236.115a1.474,1.474,0,0,0,0,2.667,2.023,2.023,0,0,1-.874,3.828Z" transform="translate(-748.858 -968.97)"/><path class="u" d="M806.971,999.218a2.247,2.247,0,0,1-.874-.172,1.96,1.96,0,0,1-.906-.332,2.023,2.023,0,0,1-.555-2.807,2.272,2.272,0,0,1,1.984-1.008,2.35,2.35,0,0,1,.638.115,1.961,1.961,0,0,1,.7.153,2.016,2.016,0,0,1,1.11,2.641,2.29,2.29,0,0,1-1.971,1.41ZM808,998.159Zm-2.686-1.914Zm3.19-.217Z" transform="translate(-759.866 -967.789)"/><path class="u" d="M738.375,1023.363a2.022,2.022,0,0,1-1.315-.485,4.39,4.39,0,0,1,1.187-7.414l.166-.064a.319.319,0,0,0,.211-.294.313.313,0,0,0-.172-.319,2.023,2.023,0,0,1,1.959-3.541,4.383,4.383,0,0,1-.491,7.912l-.159.07a.313.313,0,0,0-.211.255.325.325,0,0,0,.115.313,2.029,2.029,0,0,1-1.321,3.567Z" transform="translate(-734.97 -973.615)"/><path class="u" d="M776.051,1123.093h-.23a4.269,4.269,0,0,1-2.507-7.286l.121-.115a.2.2,0,0,0,.057-.2.2.2,0,0,0-.147-.153,2.029,2.029,0,1,1,1.276-3.828,4.262,4.262,0,0,1,1.665,7.1l-.115.121a.209.209,0,0,0,.128.357,2.029,2.029,0,0,1-.23,4.045Z" transform="translate(-748.088 -1009.931)"/><path class="u" d="M829.348,1105.819a3.439,3.439,0,0,1-3.433-3.42,2.029,2.029,0,0,1-.268-3.949,3.426,3.426,0,0,1,4.4,3.152,2.029,2.029,0,0,1,.919,3.828,3.494,3.494,0,0,1-1.614.389Z" transform="translate(-767.071 -1005.22)"/><path class="u" d="M900.595,1096.368a5.334,5.334,0,0,1-4.843-7.535l.1-.223a1.276,1.276,0,0,0-1.487-1.761,2.029,2.029,0,0,1-1.034-3.918,5.328,5.328,0,0,1,6.208,7.35l-.1.223a1.232,1.232,0,0,0,.108,1.276,1.276,1.276,0,0,0,1.123.555,2.026,2.026,0,0,1,.223,4.045Z" transform="translate(-791.588 -999.59)"/><path class="u" d="M949.861,1110.292a4,4,0,0,1-3.484-5.953l.032-.057a2.029,2.029,0,0,1,.185-4.052,4.007,4.007,0,0,1,3.394,5.953v.045a2.026,2.026,0,1,1,.638,4A3.881,3.881,0,0,1,949.861,1110.292Zm-3.369-6.01Z" transform="translate(-810.63 -1005.915)"/><path class="u" d="M792.133,1086.168a2.028,2.028,0,0,1-1-.268,4.7,4.7,0,0,1-.236-8.039l.166-.1a.661.661,0,0,0-.153-1.174,2.029,2.029,0,1,1,1.276-3.828,4.7,4.7,0,0,1,1.1,8.422l-.166.1a.638.638,0,0,0,0,1.116,2.029,2.029,0,0,1-1,3.79Z" transform="translate(-754.242 -995.905)"/><path class="u" d="M839.932,1133.92a2.975,2.975,0,0,1-1.576-.447,2.023,2.023,0,0,1-2.769-2.635,2.992,2.992,0,0,1,2.38-1.761,3.036,3.036,0,0,1,1.825.344,2.053,2.053,0,0,1,1.557-.287,2.029,2.029,0,0,1,1.538,2.418,2.992,2.992,0,0,1-2.271,2.291,3.155,3.155,0,0,1-.683.076Zm-2.4-1.2Zm3.19-2.469Z" transform="translate(-771.128 -1016.348)"/><path class="u" d="M904.488,1169.928a3.759,3.759,0,0,1-3.133-1.665,2.023,2.023,0,0,1-3.19-2.457,3.771,3.771,0,0,1,3.19-1.786h.045a3.764,3.764,0,0,1,3.05,1.6,2.029,2.029,0,0,1,3.579,1.837,3.771,3.771,0,0,1-3.222,2.463Z" transform="translate(-793.732 -1029.005)"/></g></g><path class="h" d="M1008.741,932.467l3.892,1.276c-.829,2.552-3.267,4.128-5.4,3.445s-3.19-3.369-2.38-5.946a4.97,4.97,0,0,1,4.02-3.592Z" transform="translate(-825.744 -558.466)"/><path class="h" d="M834.219,686.834a.555.555,0,0,1-.549-.549A11.485,11.485,0,0,1,845.155,674.8a.549.549,0,1,1,0,1.1,10.381,10.381,0,0,0-10.375,10.375.549.549,0,0,1-.561.562Z" transform="translate(-763.881 -466.945)"/><path class="c" d="M895.917,734.133a.536.536,0,0,1-.466-.274c-1.621-2.724-3.643-2.131-3.662-2.125a.542.542,0,0,1-.683-.357.555.555,0,0,1,.357-.689c.115,0,2.871-.849,4.926,2.616a.549.549,0,0,1-.191.753A.563.563,0,0,1,895.917,734.133Z" transform="translate(-784.661 -487.141)"/><path class="c" d="M896.036,733.12a.524.524,0,0,1-.351-.134,4.466,4.466,0,0,0-4.772-.849.549.549,0,1,1-.5-.976,5.525,5.525,0,0,1,6,1,.549.549,0,0,1-.357.963Z" transform="translate(-784.302 -487.174)"/><rect class="m" width="97.289" height="72.782" rx="8.66" transform="translate(154.017 105.577)"/><path class="d" d="M997.793,586.55h.377a4.581,4.581,0,0,1,4.581,4.581v4.639H993.18v-4.645a4.581,4.581,0,0,1,4.613-4.575Z" transform="translate(-821.617 -435.002)"/><path class="d" d="M1025.273,568.1h.376a4.581,4.581,0,0,1,4.581,4.581v16.41h-9.57v-16.41a4.581,4.581,0,0,1,4.613-4.581Z" transform="translate(-831.563 -428.324)"/><path class="d" d="M1052.753,577.4h.376a4.581,4.581,0,0,1,4.581,4.581v10.477h-9.571V581.981a4.581,4.581,0,0,1,4.613-4.581Z" transform="translate(-841.51 -431.69)"/><path class="d" d="M1080.223,551.38h.376a4.581,4.581,0,0,1,4.581,4.581V583.04h-9.571V555.961a4.581,4.581,0,0,1,4.613-4.581Z" transform="translate(-851.453 -422.272)"/><path class="f" d="M1393.4,716.356l-4.779,4.083a26.251,26.251,0,0,1-10.7,5.583,21.692,21.692,0,0,1-14.33-1.129c-17.776-7.995-60.94-79.213-60.94-79.213-1.212-2.4.568-5.245,4.052-2.795-.778-2.45,1.85-4.945,4.339-2.214-.459-1.914,1.359-5.328,5.206-2.827l-6.093-8.971c-1.742-2.6-.14-5.94,4.313-2.629s12.9,14.177,12.9,14.177,26.447,37.555,43.6,50.1h3.828Z" transform="translate(-933.496 -448.869)"/><path class="f" d="M1494.542,1133.31l2.91,24.041h-23.844l-2.718-20.941Z" transform="translate(-994.527 -632.906)"/><path class="c" d="M1483.017,1157.77h-24.941l-3.726,2.941a24.5,24.5,0,0,1-11.7,5.015l-2.782.4a10.47,10.47,0,0,0-8.856,8.722h56.543l-.74-6.081a27.7,27.7,0,0,0-3.828-10.994Z" transform="translate(-980.092 -641.759)"/><path class="f" d="M1610.612,1132.75l1.455,24.4h-23.844l-1.263-21.3Z" transform="translate(-1036.54 -632.703)"/><path class="c" d="M1596.671,1157.77h-24.941l-3.726,2.941a24.5,24.5,0,0,1-11.7,5.015l-2.775.4a10.457,10.457,0,0,0-8.856,8.722h56.537l-.74-6.081A27.693,27.693,0,0,0,1596.671,1157.77Z" transform="translate(-1021.233 -641.759)"/><path class="d" d="M1461.971,851l-22.644,61.992a70.56,70.56,0,0,0-3.484,34.85l13.788,90.564h41.53l-9.571-92.567,40.522-69.738V851Z" transform="translate(-981.551 -530.722)"/><path class="d" d="M1582.416,854.58h0a139.917,139.917,0,0,1,5.513,31.7l8.741,153.437H1556.7L1525.77,875.323l1.391-20.743Z" transform="translate(-1014.391 -532.018)"/><path class="v" d="M1538.856,660.506c9.29,8.505,24.329,30.626,34.69,48.408l-26.16,15.849-6.948-7.21,6.227,69.049s-32.859,4.409-53.966,4.007-45.3-4.677-45.3-4.677l3.662-80.534s-9.111,12.008-18.708,19.69c0,0-15.626-18.089-22.433-25.834,0,0,23.1-33.995,33.127-39.24,0,0,24.947-9.641,48.683-10.955C1491.743,649.086,1526.605,652.78,1538.856,660.506Z" transform="translate(-972.459 -457.628)"/><path class="f" d="M1338.247,665.441c.083-.23-4.466-5.679-11.057-6.623-1.914-.223-2.552-2.055-1.276-3.714,1.365-1.57,2.929-1.914,5.015-1.755a15.384,15.384,0,0,1,9.941,4.466Z" transform="translate(-941.812 -459.168)"/><path class="c" d="M1311.813,664.41a.549.549,0,0,1,0-1.091,1.621,1.621,0,0,0,1.314-.491,1.677,1.677,0,0,0,0-1.276l-4.645-8.454a.555.555,0,0,1,.217-.746.549.549,0,0,1,.747.217l4.658,8.486a.272.272,0,0,1,0,.045,2.712,2.712,0,0,1-.064,2.335,2.514,2.514,0,0,1-2.208,1Z" transform="translate(-935.719 -458.795)"/><path class="c" d="M1319.542,660.964a.549.549,0,0,1-.153-1.078,1.2,1.2,0,0,0,.874-1.436l-5.041-8.881a.549.549,0,1,1,.951-.536l5.1,8.932a.546.546,0,0,1,.057.153,2.3,2.3,0,0,1-1.627,2.795A.422.422,0,0,1,1319.542,660.964Z" transform="translate(-938.145 -457.498)"/><path class="c" d="M1328.018,650.738a.555.555,0,0,1-.434-.2l-4.141-5.3a.542.542,0,0,1,.089-.766.548.548,0,0,1,.772.089l4.141,5.3a.549.549,0,0,1-.089.766A.531.531,0,0,1,1328.018,650.738Z" transform="translate(-941.115 -455.924)"/><path class="f" d="M1549.616,618.333l.172,3.969-3.93,15.843a17.227,17.227,0,0,1-16.717,13.118h0a10.266,10.266,0,0,1-10.088-12.123l3.465-18.963,22.6-6.987Z" transform="translate(-1011.899 -444.645)"/><path class="c" d="M1501.913,551.61s-4.945,11.306-1.767,23.55l9.3-19.192Z" transform="translate(-1004.731 -422.355)"/><path class="f" d="M1510.1,544.14s-17.438,17.438-15.868,41.734,31.443,16.149,31.443,16.149l20.87-22.58S1548.69,549.155,1510.1,544.14Z" transform="translate(-1002.94 -419.652)"/><path class="c" d="M1525,564.62s1-7.72,4.147-13.01c0,0-13.578,5-29.159-2.858s-.389-32.725,15.186-22.67c17.17,11.089,34.977,6.75,35.73,20.673,0,0,10.847,5.047,8.531,16.627s-14.209,16.678-18.854,26.536a39.267,39.267,0,0,1-5.474-6.272,6.055,6.055,0,0,1,.778-7.695c2.233-2.176,4.779-5.742,4.16-10.458C1538.951,557.174,1531.008,556.759,1525,564.62Z" transform="translate(-1002.695 -412.262)"/><path class="c" d="M1521.29,636.059a44.461,44.461,0,0,0,13.622-1.2s-1.174,9.539-15.262,10.349Z" transform="translate(-1012.176 -452.488)"/><path class="c" d="M1337.948,665.723a.64.64,0,0,1-.191,0,.542.542,0,0,1-.338-.37,17.9,17.9,0,0,0-10.611-6.227,2.622,2.622,0,0,1-2.2-1.525,3.113,3.113,0,0,1,.555-3.063h0a5.915,5.915,0,0,1,5.468-1.914,16.588,16.588,0,0,1,4.875,1.085.549.549,0,1,1-.4,1.021,15.561,15.561,0,0,0-4.556-1.015c-2.163-.153-3.439.287-4.549,1.557a2.01,2.01,0,0,0-.415,1.953,1.55,1.55,0,0,0,1.34.874,18.773,18.773,0,0,1,11.415,6.77.638.638,0,0,1,.089.581.542.542,0,0,1-.485.274Zm-.517-.734Z" transform="translate(-941.513 -458.901)"/><path class="c" d="M1526.754,937.328l-3.867-20.558-14.918,52.887Z" transform="translate(-1007.949 -554.528)"/><path class="w" d="M1599.309,901.454h-.1a22.217,22.217,0,0,1-17.661-17.661.276.276,0,0,1,0-.07l-.159-2.412a.549.549,0,1,1,1.091-.077l.159,2.386a21.138,21.138,0,0,0,16.787,16.761.542.542,0,0,1,.434.638.549.549,0,0,1-.549.434Z" transform="translate(-1034.52 -541.464)"/><path class="w" d="M1463.089,890.808a.549.549,0,0,1-.3-1.008,29.351,29.351,0,0,0,10.113-11.229l1.1-2.169a.542.542,0,0,1,.734-.236.549.549,0,0,1,.243.734l-1.11,2.169a30.422,30.422,0,0,1-10.483,11.644A.53.53,0,0,1,1463.089,890.808Z" transform="translate(-991.505 -539.808)"/><path class="w" d="M1591.207,1132.987h-19.518a.549.549,0,1,1,0-1.1h19.524a.549.549,0,1,1,0,1.1Z" transform="translate(-1030.813 -632.392)"/><path class="w" d="M1474.8,1132.987h-19.524a.549.549,0,1,1,0-1.1H1474.8a.549.549,0,0,1,0,1.1Z" transform="translate(-988.678 -632.392)"/><path class="c" d="M1474.108,731.421h-.032a.542.542,0,0,1-.517-.574l.581-10.891a.549.549,0,1,1,1.091.057l-.581,10.891A.542.542,0,0,1,1474.108,731.421Z" transform="translate(-995.493 -483.082)"/><path class="c" d="M1551.3,587.287a.543.543,0,0,1-.4-.913,4.671,4.671,0,0,1,5.857-1.1.542.542,0,0,1,.192.747.549.549,0,0,1-.746.2,3.592,3.592,0,0,0-4.466.88.542.542,0,0,1-.434.185Z" transform="translate(-1023.434 -434.329)"/><path class="c" d="M1606.2,748.391a.516.516,0,0,1-.389-.166l-14.037-14.6a.555.555,0,0,1,0-.778.549.549,0,0,1,.778,0l14.037,14.6a.543.543,0,0,1,0,.772A.548.548,0,0,1,1606.2,748.391Z" transform="translate(-1038.223 -487.897)"/><path class="c" d="M1524.476,674.2a18.5,18.5,0,0,1-18.5-19.837.549.549,0,1,1,1.091.083,17.4,17.4,0,0,0,17.412,18.663,24.247,24.247,0,0,0,14.433-4.722.549.549,0,0,1,.638.887A25.306,25.306,0,0,1,1524.476,674.2Z" transform="translate(-1007.208 -459.347)"/><path class="w" d="M1519.709,880.249a232.5,232.5,0,0,1-51.337-5.87.549.549,0,0,1-.408-.638.536.536,0,0,1,.638-.408c51.292,11.657,87.355,2.2,87.712,2.106a.549.549,0,0,1,.287,1.053,140.29,140.29,0,0,1-24.59,3.407C1528.432,880.1,1524.31,880.249,1519.709,880.249Z" transform="translate(-993.465 -538.801)"/><path class="c" d="M1546.8,814.451l51.745,38.046a3.107,3.107,0,0,0,4.466-.829l22.861-35.577-52.958-39.8Z" transform="translate(-1022.003 -503.68)"/><path class="f" d="M1633.4,742.91l-26.16,15.849-19.39,47.713-12.123,9.768c-1.691,2.233,1.365,6.278,5.213,3.828l4.881-2.552-1.551,4.977-1.595-1.174-.549,4.281c-.517,3.26,2.106,5.143,3.911,3.235-.638,2.3,2.482,4.849,4.945,3.241a2.777,2.777,0,0,0,4.683,2.635c-.434,2.552,3.828,4.766,4.83,2.195,0,0,25.369-46.22,36.413-69.17a21.693,21.693,0,0,0-1.008-20.66Z" transform="translate(-1032.302 -491.598)"/><path class="c" d="M1591.888,872.063a.536.536,0,0,1-.275-.07.549.549,0,0,1-.2-.746c0-.057,3.19-5.57,4.052-9.953a.555.555,0,0,1,.638-.427.549.549,0,0,1,.434.638c-.925,4.562-4.045,10.049-4.179,10.279a.529.529,0,0,1-.466.281Z" transform="translate(-1038.124 -534.29)"/><path class="c" d="M1599.69,877.173a.588.588,0,0,1-.287-.077.549.549,0,0,1-.179-.753,41.648,41.648,0,0,0,4.147-9.915.542.542,0,0,1,.638-.4.555.555,0,0,1,.4.67,41.642,41.642,0,0,1-4.275,10.209.536.536,0,0,1-.44.262Z" transform="translate(-1040.949 -536.159)"/><path class="c" d="M1606.981,882a.543.543,0,0,1-.479-.81,52.143,52.143,0,0,0,3.682-8.69.549.549,0,1,1,1.059.281,50.433,50.433,0,0,1-3.777,8.933A.548.548,0,0,1,1606.981,882Z" transform="translate(-1043.589 -538.346)"/><path class="f" d="M1572.562,776.29l-22.631,36.732a3.311,3.311,0,0,1-2.986,1.563h0a1.021,1.021,0,0,1-.8-1.563l22.057-34.907Z" transform="translate(-1021.708 -503.68)"/><path class="x" d="M1345.078,371.92h-96.912a7.835,7.835,0,0,0-7.835,7.842V448.67a7.835,7.835,0,0,0,7.835,7.835h96.912a7.835,7.835,0,0,0,7.835-7.835V379.762A7.835,7.835,0,0,0,1345.078,371.92Z" transform="translate(-911.074 -357.315)"/><g class="i" transform="translate(364.412 30.777)"><path class="c" d="M1328.334,451.03h-.07l-29.35-1.914a1.091,1.091,0,0,1-1.008-.944l-2.456-18.312a.967.967,0,0,1,0-.383l3.649-16.417a1.117,1.117,0,0,1,.332-.574l16.4-14.937a1.1,1.1,0,0,1,1.506.032l16.589,16.347.089.1,14.56,18.612a1.1,1.1,0,0,1-.153,1.506l-19.4,16.627a1.073,1.073,0,0,1-.683.255Zm-28.406-4.052,28.029,1.838,18.274-15.664-13.871-17.725-15.83-15.575-15.377,14.005-3.535,15.894Z" transform="translate(-1295.43 -397.266)"/></g><path class="h" d="M1299.849,458.1a1.085,1.085,0,0,1-.466-.108,1.1,1.1,0,0,1-.638-1.066l2.118-28.559-15.313-23.454a1.1,1.1,0,0,1,1.238-1.646l24.782,7.657,18.12-1.417a1.129,1.129,0,0,1,.861.319l14.324,14.375a1.1,1.1,0,0,1-.281,1.755l-22.631,11.319-21.355,20.507a1.116,1.116,0,0,1-.759.319Zm-10.8-51.828,13.865,21.221a1.079,1.079,0,0,1,.179.683l-1.914,26.07,19.39-18.625a1.279,1.279,0,0,1,.268-.191l21.426-10.719-12.9-12.94-17.827,1.385a.982.982,0,0,1-.408-.045Z" transform="translate(-927.379 -368.643)"/><path class="c" d="M1324.681,451.022a.977.977,0,0,1-.3-.045l-21.693-6.125a1.09,1.09,0,0,1-.357-.172l-16.551-12.289a1.1,1.1,0,0,1-.415-1.123l5.245-22.97a1.072,1.072,0,0,1,.593-.74l21.215-10.209a1.11,1.11,0,0,1,.823-.051l23.371,7.8a1.091,1.091,0,0,1,.74.906l3.082,25.381a1.078,1.078,0,0,1-.23.817l-14.675,18.408a1.091,1.091,0,0,1-.849.415Zm-21.2-8.218,20.794,5.87,13.941-17.482-2.941-24.246-22.3-7.433-20.341,9.794-4.964,21.757Z" transform="translate(-927.365 -366.481)"/><rect class="m" width="88.975" height="68.322" rx="7.49" transform="translate(305.31 260.647)"/><path class="h" d="M1275.053,802.15h-18.8l7.848-17.074a18.8,18.8,0,1,0,10.949,17.074Z" transform="translate(-910.036 -506.238)"/><path class="d" d="M1292.558,787.159a18.784,18.784,0,0,1,2.763,10.419l-18.791-.6,8-16.978A18.777,18.777,0,0,1,1292.558,787.159Z" transform="translate(-924.177 -505.023)"/></g><line class="y" x2="601.847" transform="translate(236.085 667.961)"/></g></g></svg>