<svg xmlns="http://www.w3.org/2000/svg" xmlns:xlink="http://www.w3.org/1999/xlink" width="225" height="47" viewBox="0 0 225 47"><defs><style>.a{fill:#fff;opacity:0;}.b{fill:url(#a);}</style><linearGradient id="a" x1="-0.034" y1="0.13" x2="1.016" y2="1.161" gradientUnits="objectBoundingBox"><stop offset="0" stop-color="#315b81"/><stop offset="1" stop-color="#003463"/></linearGradient></defs><g transform="translate(-1268 -259)"><rect class="a" width="225" height="47" transform="translate(1268 259)"/><path class="b" d="M28.513-6.485c-.728-7.132-6.041-11.208-13.246-11.208C7.32-17.693,1.134-12.235,1.134-2.38c0,9.811,6.041,15.313,14.134,15.313,8.18,0,12.707-5.56,13.246-10.844l-7.278-.044c-.509,2.868-2.664,4.571-5.822,4.571-4.25,0-6.929-3.071-6.929-9,0-5.691,2.62-9,6.972-9,3.275,0,5.415,1.907,5.779,4.891Zm6.063-10.8,10.9,19.854v9.956h7.162V2.569l10.9-19.854H55.494l-6.3,12.475h-.262l-6.3-12.475Zm60.546,10.8c-.728-7.132-6.041-11.208-13.246-11.208-7.948,0-14.134,5.459-14.134,15.313,0,9.811,6.041,15.313,14.134,15.313,8.18,0,12.707-5.56,13.246-10.844l-7.278-.044c-.509,2.868-2.664,4.571-5.822,4.571-4.25,0-6.929-3.071-6.929-9,0-5.691,2.62-9,6.972-9,3.275,0,5.415,1.907,5.779,4.891Zm7.548,19.01h19.607V6.674h-12.4V-17.286h-7.205ZM156.42-2.38c0-9.854-6.23-15.313-14.236-15.313-8.035,0-14.221,5.459-14.221,15.313,0,9.811,6.186,15.313,14.221,15.313C150.19,12.933,156.42,7.474,156.42-2.38Zm-7.365,0c0,5.837-2.562,9-6.87,9s-6.87-3.159-6.87-9,2.576-9,6.87-9S149.055-8.217,149.055-2.38Zm15,14.905h7.205V3.268h4.891c6.827,0,11.092-4.047,11.092-10.233,0-6.128-4.178-10.32-10.873-10.32H164.055ZM171.26-2.409v-9.068h3.552c3.231,0,4.964,1.747,4.964,4.512s-1.732,4.556-4.964,4.556Zm39.076-5.939h6.9c-.058-5.575-4.5-9.345-11.426-9.345-6.812,0-11.718,3.712-11.674,9.258-.015,4.527,3.159,7.074,8.311,8.253l3.115.728c3.275.757,4.745,1.645,4.774,3.319-.029,1.82-1.732,3.086-4.629,3.086-3.188,0-5.284-1.485-5.444-4.352h-6.9C193.452,9.57,198.3,12.9,205.8,12.9c7.424,0,11.82-3.362,11.849-9.025-.029-4.76-3.246-7.671-9.127-8.967l-2.562-.582c-2.707-.582-4.425-1.485-4.367-3.261.015-1.63,1.412-2.809,4.207-2.809S210.148-10.473,210.337-8.348Z" transform="translate(1270.289 284.447)"/></g></svg>