<svg xmlns="http://www.w3.org/2000/svg" width="20.104" height="15.078" viewBox="0 0 20.104 15.078">
  <path id="Download" d="M120.838,1763.377a.838.838,0,0,1,.838.838v3.351a.838.838,0,0,0,.838.838h15.078a.838.838,0,0,0,.838-.838v-3.351a.838.838,0,0,1,1.675,0v3.351a2.513,2.513,0,0,1-2.513,2.513H122.513a2.513,2.513,0,0,1-2.513-2.513v-3.351A.838.838,0,0,1,120.838,1763.377Zm9.214-8.376a.838.838,0,0,1,.838.838v6.354l1.083-1.083a.838.838,0,1,1,1.184,1.185l-2.513,2.513a.837.837,0,0,1-1.184,0l-2.513-2.513a.838.838,0,0,1,1.184-1.185l1.083,1.083v-6.354A.838.838,0,0,1,130.052,1755Z" transform="translate(-120 -1755)" fill="#6f91a8"/>
</svg>
