<svg xmlns="http://www.w3.org/2000/svg" width="23" height="16" viewBox="0 0 23 16"><defs><style>.a{fill:#fff;opacity:0;}.b{fill:#6f91a8;fill-rule:evenodd;}</style></defs><g transform="translate(-1545 -422)"><rect class="a" width="23" height="16" transform="translate(1545 422)"/><path class="b" d="M475.252,751.225l-7.493,4.088a2.629,2.629,0,0,1-2.515,0l-7.493-4.088v8.151a.875.875,0,0,0,.875.875h15.752a.875.875,0,0,0,.875-.875ZM458.7,749.75l7.38,4.025a.874.874,0,0,0,.838,0l7.38-4.025Zm-2.43-.29A2.626,2.626,0,0,1,458.625,748h15.752A2.624,2.624,0,0,1,477,750.625v8.751A2.625,2.625,0,0,1,474.377,762H458.625A2.625,2.625,0,0,1,456,759.376v-8.751A2.622,2.622,0,0,1,456.272,749.461Z" transform="translate(1089.924 -324.947)"/></g></svg>