<svg xmlns="http://www.w3.org/2000/svg" width="23.324" height="16" viewBox="0 0 23.324 16"><defs><style>.a{fill:#6f91a8;fill-rule:evenodd;}</style></defs><g transform="translate(-1544.25 -480.678)"><path class="a" d="M128.045,424.343A11.919,11.919,0,0,0,132,425a12.136,12.136,0,0,0,9.543-4.671.512.512,0,0,0,0-.657A12.819,12.819,0,0,0,138,416.6Zm7.91-8.686A11.919,11.919,0,0,0,132,415a12.131,12.131,0,0,0-9.542,4.672.51.51,0,0,0,0,.657A12.814,12.814,0,0,0,126,423.4Zm5.834-3.271a1,1,0,0,1-.175,1.4l-1.931,1.5a14.944,14.944,0,0,1,3.426,3.137,2.512,2.512,0,0,1,0,3.144A14.133,14.133,0,0,1,132,427a13.785,13.785,0,0,1-5.782-1.236l-2.6,2.025a1,1,0,1,1-1.228-1.578l1.931-1.5a14.946,14.946,0,0,1-3.426-3.137,2.512,2.512,0,0,1,0-3.144A14.135,14.135,0,0,1,132,413a13.785,13.785,0,0,1,5.782,1.236l2.6-2.025A1,1,0,0,1,141.789,412.386Z" transform="translate(1423.912 68.678)"/><path class="a" d="M80,420a4,4,0,1,1,4,4A4,4,0,0,1,80,420Zm4-2a2,2,0,1,0,2,2A2,2,0,0,0,84,418Zm-11.109.428a14.082,14.082,0,0,1,22.218,0,2.512,2.512,0,0,1,0,3.144,14.082,14.082,0,0,1-22.218,0A2.512,2.512,0,0,1,72.891,418.428ZM84,415a12.131,12.131,0,0,0-9.542,4.672.51.51,0,0,0,0,.657,12.083,12.083,0,0,0,19.085,0,.512.512,0,0,0,0-.657A12.133,12.133,0,0,0,84,415Z" transform="translate(1471.912 68.678)"/></g></svg>