<svg xmlns="http://www.w3.org/2000/svg" width="26" height="16" viewBox="0 0 26 16"><defs><style>.a{fill:#fff;opacity:0;}.b{fill:#6f91a8;fill-rule:evenodd;}</style></defs><g transform="translate(-1543 -487)"><rect class="a" width="26" height="16" transform="translate(1543 487)"/><path class="b" d="M80,420a4,4,0,1,1,4,4A4,4,0,0,1,80,420Zm4-2a2,2,0,1,0,2,2A2,2,0,0,0,84,418Zm-11.109.428a14.082,14.082,0,0,1,22.218,0,2.512,2.512,0,0,1,0,3.144,14.082,14.082,0,0,1-22.218,0A2.512,2.512,0,0,1,72.891,418.428ZM84,415a12.131,12.131,0,0,0-9.542,4.672.51.51,0,0,0,0,.657,12.083,12.083,0,0,0,19.085,0,.512.512,0,0,0,0-.657A12.133,12.133,0,0,0,84,415Z" transform="translate(1471.912 75.126)"/></g></svg>