<svg xmlns="http://www.w3.org/2000/svg" width="22" height="22" viewBox="0 0 22 22"><defs><style>.a{fill:#fff;opacity:0;}.b{fill:#6f91a8;fill-rule:evenodd;}</style></defs><g transform="translate(-1545 -289.641)"><rect class="a" width="22" height="22" transform="translate(1545 289.641)"/><path class="b" d="M610.558,851.42a7.817,7.817,0,0,0-7.767,6.947h15.535A7.817,7.817,0,0,0,610.558,851.42Zm3.277-1.159a5.21,5.21,0,1,0-6.554,0,9.56,9.56,0,0,0-6.228,8.022,1.674,1.674,0,0,0,1.69,1.821h15.63a1.674,1.674,0,0,0,1.69-1.821A9.56,9.56,0,0,0,613.835,850.261Zm-3.277-7.524a3.473,3.473,0,1,0,3.473,3.473A3.474,3.474,0,0,0,610.558,842.737Z" transform="translate(945.942 -549.82)"/></g></svg>