<svg xmlns="http://www.w3.org/2000/svg" width="17" height="16" viewBox="0 0 17 16"><defs><style>.a{fill:#fff;opacity:0;}.b{fill:#33b986;}</style></defs><g transform="translate(-1428 -675)"><rect class="a" width="17" height="16" transform="translate(1428 675)"/><g transform="translate(1420.119 760.379)"><path class="b" d="M16.287-69.966a7.6,7.6,0,0,0,7.546-7.546,7.6,7.6,0,0,0-7.554-7.546A7.6,7.6,0,0,0,8.74-77.512,7.607,7.607,0,0,0,16.287-69.966ZM20.2-77.52a.58.58,0,0,1-.215.444l-2.575,2.582a.546.546,0,0,1-.4.163.547.547,0,0,1-.555-.562.57.57,0,0,1,.17-.407l.947-.94.925-.769-1.613.059H12.92a.554.554,0,0,1-.577-.57.556.556,0,0,1,.577-.577h3.966l1.613.067-.925-.769-.947-.94a.636.636,0,0,1-.17-.414.541.541,0,0,1,.555-.555.541.541,0,0,1,.4.155l2.575,2.589A.578.578,0,0,1,20.2-77.52Z" transform="translate(0 0)"/></g></g></svg>