<svg xmlns="http://www.w3.org/2000/svg" width="26" height="26" viewBox="0 0 26 26"><defs><style>.a{fill:#fff;opacity:0;}.b{fill:#6f91a8;fill-rule:evenodd;}</style></defs><g transform="translate(-1598 -420)"><rect class="a" width="26" height="26" transform="translate(1598 420)"/><path class="b" d="M180,1762a1,1,0,0,1,1,1v6a1,1,0,0,1-2,0v-6A1,1,0,0,1,180,1762Zm0-4a1,1,0,0,1,1,1v1a1,1,0,0,1-2,0v-1A1,1,0,0,1,180,1758Zm-12,6a12,12,0,1,1,12,12A12,12,0,0,1,168,1764Zm12-10a10,10,0,1,0,10,10A10,10,0,0,0,180,1754Z" transform="translate(1431 -1331)"/></g></svg>