<svg xmlns="http://www.w3.org/2000/svg" width="59" height="59" viewBox="0 0 59 59"><defs><style>.a{fill:#6f91a8;opacity:0.1;}.b{fill:#f5c90e;}.c{fill:#fff;}.d{fill:none;stroke:#2b3134;stroke-miterlimit:10;stroke-width:2px;}.e{fill:#2b3134;}</style></defs><g transform="translate(-300 -237)"><circle class="a" cx="29.5" cy="29.5" r="29.5" transform="translate(300 237)"/><g transform="translate(313.609 250.167)"><path class="b" d="M1671.256,548c4.96,2.834,9.92,2.126,9.92,9.211v1.417H1650v-1.417c0-7.085,4.96-6.377,9.92-9.211Z" transform="translate(-1650 -527.452)"/><path class="c" d="M1672.5,548.794l-2.834-1.417-2.834,1.417L1664,545.96l1.417-2.126h.709V541l3.542.708,3.543-.708v2.834h.708l1.417,2.126Z" transform="translate(-1654.08 -525.412)"/><path class="d" d="M1679,548" transform="translate(-1658.453 -527.452)"/><path class="d" d="M1671.256,548c4.96,2.834,9.92,2.126,9.92,9.211v1.417H1650v-1.417c0-7.085,4.96-6.377,9.92-9.211" transform="translate(-1650 -527.452)"/><path class="d" d="M1672.5,549.96l-2.834-1.417-2.834,1.417L1664,547.126l1.417-2.126,4.251.708,4.251-.708,1.417,2.126Z" transform="translate(-1654.08 -526.578)"/><line class="d" y2="2.713" transform="translate(19.023 15.71)"/><line class="d" y1="2.713" transform="translate(11.97 15.71)"/><line class="d" x2="1.628" transform="translate(14.683 28.188)"/><line class="d" x2="1.628" transform="translate(14.683 25.476)"/><g transform="translate(9.211)"><path class="c" d="M1675.754,527.417v2.834c-.708,4.96-2.834,6.377-2.834,6.377a9.211,9.211,0,0,1-7.085,0s-2.125-1.417-2.834-6.377v-2.834l2.834-1.417,7.085,2.834Z" transform="translate(-1663 -521.04)"/><path class="e" d="M1663,525.377c0-4.3,2.073-6.377,6.377-6.377s6.377,2.072,6.377,6.377l-2.834,1.417-3.543-1.417-3.543-1.417Z" transform="translate(-1663 -519)"/><path class="d" d="M1675.754,528v2.834c-.708,4.96-2.834,6.377-2.834,6.377a9.211,9.211,0,0,1-7.085,0s-2.125-1.417-2.834-6.377V528" transform="translate(-1663 -521.623)"/><path class="d" d="M1663,525.377c0-4.3,2.073-6.377,6.377-6.377s6.377,2.072,6.377,6.377" transform="translate(-1663 -519)"/><path class="d" d="M1663,527.417l2.834-1.417,3.543,1.417,3.543,1.417,2.834-1.417" transform="translate(-1663 -521.04)"/></g></g></g></svg>