<svg xmlns="http://www.w3.org/2000/svg" width="25" height="25" viewBox="0 0 25 25"><defs><style>.a{fill:#fff;opacity:0;}.b{fill:#6f91a8;fill-rule:evenodd;}</style></defs><g transform="translate(-1541 -412.641)"><rect class="a" width="25" height="25" transform="translate(1541 412.641)"/><path class="b" d="M553.1,748.1A2.855,2.855,0,0,1,556,745h3.558a3,3,0,0,1,2.847,2.051l1.153,3.46a3,3,0,0,1-.725,3.07l-.557.557a11.86,11.86,0,0,0,3.6,3.576l.547-.547a3,3,0,0,1,3.07-.725l3.46,1.154A3,3,0,0,1,575,760.442V764a2.855,2.855,0,0,1-3.1,2.9A21.007,21.007,0,0,1,553.1,748.1ZM556,747a.856.856,0,0,0-.906.9A19.006,19.006,0,0,0,572.1,764.906.856.856,0,0,0,573,764v-3.558a1,1,0,0,0-.684-.949l-3.46-1.153a1,1,0,0,0-1.023.241l-.554.554a1.98,1.98,0,0,1-2.518.242,13.854,13.854,0,0,1-4.167-4.156,1.974,1.974,0,0,1,.259-2.488l.566-.566a1,1,0,0,0,.241-1.023l-1.153-3.46a1,1,0,0,0-.949-.684Z" transform="translate(989.911 -330.012)"/></g></svg>