<svg xmlns="http://www.w3.org/2000/svg" width="51" height="43" viewBox="0 0 51 43"><defs><style>.a{fill:#fff;opacity:0;}.b{fill:none;stroke:#6f91a8;stroke-linecap:round;stroke-width:2.5px;}.c{fill:#6f91a8;fill-rule:evenodd;}</style></defs><g transform="translate(-22.465 3.457)"><rect class="a" width="51" height="43" transform="translate(22.465 -3.457)"/><g transform="translate(57.697)"><line class="b" x2="11.975" transform="translate(0 5.987)"/><line class="b" x2="11.975" transform="translate(5.987 0) rotate(90)"/></g><path class="c" d="M622.919,226.595a2.865,2.865,0,1,1,2.865,2.865A2.865,2.865,0,0,1,622.919,226.595Zm8.5,16.26-8.5-8.5-4.3,4.3L608.595,228.62l-5.73,5.73v8a1.433,1.433,0,0,0,1.432,1.432h25.784A1.433,1.433,0,0,0,631.423,242.854ZM604.3,220.865a1.433,1.433,0,0,0-1.432,1.432v8l3.7-3.7a2.864,2.864,0,0,1,4.051,0l8,8,2.272-2.272a2.864,2.864,0,0,1,4.051,0l6.569,6.569V222.3a1.433,1.433,0,0,0-1.432-1.432ZM600,222.3a4.3,4.3,0,0,1,4.3-4.3h25.784a4.3,4.3,0,0,1,4.3,4.3v20.054a4.3,4.3,0,0,1-4.3,4.3H604.3a4.3,4.3,0,0,1-4.3-4.3Z" transform="translate(-575.593 -208.841)"/></g></svg>