<svg xmlns="http://www.w3.org/2000/svg" width="24" height="19" viewBox="0 0 24 19"><defs><style>.a{fill:#fff;opacity:0;}.b{fill:#6f91a8;fill-rule:evenodd;}</style></defs><g transform="translate(-1797 -219)"><rect class="a" width="24" height="19" transform="translate(1797 219)"/><path class="b" d="M367.927,851.808a.881.881,0,0,1,.881-.881h3.523a.881.881,0,0,1,0,1.762h-3.523A.881.881,0,0,1,367.927,851.808Zm11.45-7.046H361.762V847.4h17.616Zm-15.854,4.4v7.046a.881.881,0,0,0,.881.881h12.331a.881.881,0,0,0,.881-.881v-7.046Zm-3.523-4.4A1.762,1.762,0,0,1,361.762,843h17.616a1.762,1.762,0,0,1,1.762,1.762V847.4a1.761,1.761,0,0,1-1.762,1.762v7.046a2.642,2.642,0,0,1-2.642,2.642H364.4a2.642,2.642,0,0,1-2.642-2.642v-7.046A1.761,1.761,0,0,1,360,847.4Z" transform="translate(1438.348 -622.652)"/></g></svg>