<svg xmlns="http://www.w3.org/2000/svg" width="22" height="22" viewBox="0 0 22 22"><defs><style>.a{fill:#fff;opacity:0;}.b{fill:#6f91a8;fill-rule:evenodd;}</style></defs><g transform="translate(-1759 -336)"><rect class="a" width="22" height="22" transform="translate(1759 336)"/><path class="b" d="M520.151,225.1l-3.276-3.235-9.781,9.658a.9.9,0,0,0-.268.638v2.861h2.9a.919.919,0,0,0,.646-.264Zm1.024-6.205a.922.922,0,0,0-1.292,0l-1.716,1.695,3.276,3.235,1.716-1.695a.9.9,0,0,0,0-1.276Zm-2.583-1.275a2.765,2.765,0,0,1,3.875,0l1.984,1.959a2.683,2.683,0,0,1,0,3.827l-12.789,12.629a2.758,2.758,0,0,1-1.937.793h-3.811a.908.908,0,0,1-.913-.9v-3.763a2.689,2.689,0,0,1,.8-1.913Z" transform="translate(1255.119 120.171)"/></g></svg>